<svg width="318" height="158" viewBox="0 0 318 158" fill="none" xmlns="http://www.w3.org/2000/svg">
<path d="M6.87766 113.816C17.2643 105.02 27.0428 96.5048 36.213 88.2703C43.0439 82.0945 47.9097 76.6672 50.8105 71.9885C53.8048 67.2163 55.302 62.2101 55.302 56.97C55.302 52.1977 54.0387 48.2676 51.5123 45.1797C48.9858 41.9982 45.5236 40.4074 41.1256 40.4074C36.0726 40.4074 31.7682 42.0918 28.2124 45.4604C24.7502 48.7355 22.2237 53.3206 20.633 59.2157L6.59694 55.8471C8.93628 47.519 13.1471 41.0625 19.2294 36.4774C25.3117 31.8922 32.6572 29.5997 41.266 29.5997C47.1611 29.5997 52.3544 30.7226 56.846 32.9683C61.3375 35.1205 64.7997 38.2553 67.2326 42.3725C69.6655 46.4897 70.882 51.3556 70.882 56.97C70.882 62.1165 69.8995 66.7484 67.9344 70.8656C66.063 74.9829 63.3025 78.9598 59.6532 82.7963C56.0038 86.5392 50.8572 91.1243 44.2135 96.5516C37.5698 101.885 29.2417 108.482 19.2294 116.342V113.395H73.8296V126.448H6.87766V113.816Z" fill="#FFDCF6"/>
<path d="M164.393 113.368C174.78 104.572 184.558 96.0564 193.728 87.822C200.559 81.6461 205.425 76.2188 208.326 71.5402C211.32 66.7679 212.817 61.7617 212.817 56.5216C212.817 51.7494 211.554 47.8193 209.028 44.7313C206.501 41.5498 203.039 39.9591 198.641 39.9591C193.588 39.9591 189.284 41.6434 185.728 45.0121C182.266 48.2871 179.739 52.8722 178.148 58.7674L164.112 55.3987C166.452 47.0707 170.663 40.6141 176.745 36.029C182.827 31.4439 190.173 29.1513 198.781 29.1513C204.677 29.1513 209.87 30.2742 214.361 32.52C218.853 34.6722 222.315 37.8069 224.748 41.9241C227.181 46.0414 228.397 50.9072 228.397 56.5216C228.397 61.6682 227.415 66.3 225.45 70.4173C223.578 74.5345 220.818 78.5114 217.169 82.3479C213.519 86.0909 208.373 90.676 201.729 96.1032C195.085 101.437 186.757 108.034 176.745 115.894V112.946H231.345V126H164.393V113.368Z" fill="#FFDCF6"/>
<path d="M118.755 127.404C111.082 127.404 104.438 125.485 98.8234 121.649C93.3026 117.719 89.045 112.058 86.0506 104.665C83.1498 97.2729 81.6995 88.477 81.6995 78.2775C81.6995 68.0779 83.1498 59.282 86.0506 51.8897C89.045 44.4974 93.3026 38.883 98.8234 35.0465C104.438 31.1164 111.082 29.1513 118.755 29.1513C126.334 29.1513 132.884 31.1164 138.405 35.0465C144.019 38.883 148.277 44.4974 151.178 51.8897C154.172 59.282 155.669 68.0779 155.669 78.2775C155.669 88.477 154.172 97.2729 151.178 104.665C148.277 112.058 144.066 117.719 138.545 121.649C133.025 125.485 126.428 127.404 118.755 127.404ZM118.755 116.877C125.585 116.877 130.685 113.508 134.054 106.771C137.516 100.033 139.247 90.5356 139.247 78.2775C139.247 66.0193 137.516 56.5216 134.054 49.7843C130.685 43.047 125.585 39.6784 118.755 39.6784C111.924 39.6784 106.73 43.047 103.175 49.7843C99.7124 56.5216 97.9813 66.0193 97.9813 78.2775C97.9813 90.5356 99.7124 100.033 103.175 106.771C106.73 113.508 111.924 116.877 118.755 116.877Z" fill="#FFDCF6"/>
<path d="M277.82 127.404C266.404 127.404 257.468 123.38 251.011 115.333C244.555 107.285 241.326 95.495 241.326 79.9618C241.326 69.2008 242.823 60.0306 245.818 52.4512C248.906 44.8717 253.21 39.1169 258.731 35.1868C264.252 31.1632 270.708 29.1513 278.101 29.1513C285.867 29.1513 292.464 30.8824 297.892 34.3447C303.412 37.8069 307.296 42.6727 309.541 48.9421L295.786 53.4337C294.289 49.41 292.043 46.1349 289.049 43.6085C286.054 40.9884 282.405 39.6784 278.101 39.6784C273.89 39.6784 270.194 41.082 267.012 43.8892C263.924 46.6028 261.491 50.72 259.714 56.2409C258.029 61.7617 257.187 68.4522 257.187 76.3124V79.4004L254.52 80.1022C256.111 77.4821 258.263 75.1428 260.977 73.0841C263.784 70.9319 267.012 69.2476 270.662 68.0312C274.311 66.7211 278.101 66.0661 282.031 66.0661C287.552 66.0661 292.511 67.2358 296.909 69.5751C301.401 71.8209 304.91 75.1895 307.436 79.6811C310.056 84.079 311.366 89.3659 311.366 95.5418C311.366 101.531 309.963 106.958 307.155 111.824C304.442 116.689 300.558 120.526 295.505 123.333C290.452 126.047 284.557 127.404 277.82 127.404ZM277.82 116.877C281.657 116.877 284.932 115.988 287.645 114.21C290.452 112.432 292.558 109.999 293.961 106.911C295.459 103.729 296.207 100.174 296.207 96.2436C296.207 90.3485 294.616 85.623 291.435 82.0672C288.347 78.4178 284.043 76.5931 278.522 76.5931C275.527 76.5931 272.58 77.1546 269.679 78.2775C266.778 79.4004 264.065 80.9443 261.538 82.9094C259.105 84.8744 257.093 87.0734 255.503 89.5063L257.327 81.0847V86.1377C257.327 92.3135 258.123 97.7408 259.714 102.419C261.304 107.005 263.644 110.56 266.732 113.087C269.913 115.613 273.609 116.877 277.82 116.877Z" fill="#FFDCF6"/>
</svg>
