<svg width="1281" height="754" viewBox="0 0 1281 754" fill="none" xmlns="http://www.w3.org/2000/svg">
<path d="M-81.5472 531.657C-32.754 490.337 13.1819 450.335 56.2606 411.652C88.3498 382.64 111.208 357.144 124.835 335.165C138.901 312.747 145.935 289.23 145.935 264.613C145.935 242.195 140 223.732 128.132 209.226C116.263 194.281 99.9986 186.808 79.3384 186.808C55.6012 186.808 35.3806 194.72 18.6766 210.545C2.41225 225.93 -9.45637 247.47 -16.9292 275.163L-82.8659 259.338C-71.8765 220.216 -52.0955 189.885 -23.5229 168.345C5.04972 146.806 39.5566 136.036 79.9978 136.036C107.691 136.036 132.088 141.311 153.188 151.861C174.287 161.972 190.552 176.697 201.981 196.039C213.41 215.38 219.124 238.238 219.124 264.613C219.124 288.79 214.509 310.549 205.278 329.891C196.486 349.232 183.518 367.914 166.375 385.937C149.231 403.52 125.055 425.059 93.8445 450.555C62.6345 475.611 23.512 506.601 -23.5229 543.526V529.679H232.971V591H-81.5472V531.657Z" fill="#FFDCF6"/>
<path d="M695.877 532.546C744.671 491.226 790.606 451.224 833.685 412.542C865.774 383.529 888.632 358.034 902.259 336.055C916.326 313.636 923.359 290.119 923.359 265.503C923.359 243.084 917.425 224.622 905.556 210.116C893.688 195.17 877.423 187.697 856.763 187.697C833.026 187.697 812.805 195.61 796.101 211.435C779.837 226.82 767.968 248.359 760.495 276.053L694.559 260.228C705.548 221.105 725.329 190.774 753.902 169.235C782.474 147.696 816.981 136.926 857.422 136.926C885.116 136.926 909.512 142.201 930.612 152.751C951.712 162.861 967.976 177.587 979.405 196.928C990.834 216.27 996.549 239.128 996.549 265.503C996.549 289.679 991.933 311.439 982.702 330.78C973.911 350.121 960.943 368.804 943.799 386.826C926.656 404.409 902.479 425.949 871.269 451.444C840.059 476.5 800.937 507.49 753.902 544.415V530.568H1010.4V591.889H695.877V532.546Z" fill="#FFDCF6"/>
<path d="M1212.76 597.594C1159.13 597.594 1117.15 578.692 1086.82 540.888C1056.49 503.084 1041.33 447.697 1041.33 374.727C1041.33 324.176 1048.36 281.097 1062.43 245.491C1076.93 209.886 1097.15 182.852 1123.09 164.389C1149.02 145.487 1179.35 136.036 1214.08 136.036C1250.57 136.036 1281.56 144.169 1307.05 160.433C1332.99 176.697 1351.23 199.556 1361.78 229.007L1297.16 250.107C1290.13 231.205 1279.58 215.82 1265.51 203.951C1251.45 191.643 1234.3 185.489 1214.08 185.489C1194.3 185.489 1176.94 192.083 1161.99 205.27C1147.49 218.018 1136.06 237.359 1127.7 263.294C1119.79 289.23 1115.84 320.659 1115.84 357.584V372.09L1103.31 375.387C1110.78 363.079 1120.89 352.089 1133.64 342.418C1146.83 332.308 1161.99 324.396 1179.13 318.681C1196.28 312.527 1214.08 309.45 1232.54 309.45C1258.48 309.45 1281.78 314.945 1302.44 325.934C1323.54 336.484 1340.02 352.309 1351.89 373.409C1364.2 394.069 1370.35 418.905 1370.35 447.917C1370.35 476.05 1363.76 501.546 1350.57 524.404C1337.82 547.262 1319.58 565.285 1295.84 578.472C1272.11 591.22 1244.41 597.594 1212.76 597.594ZM1212.76 548.141C1230.79 548.141 1246.17 543.965 1258.92 535.613C1272.11 527.261 1282 515.832 1288.59 501.326C1295.62 486.38 1299.14 469.676 1299.14 451.214C1299.14 423.521 1291.67 401.322 1276.72 384.618C1262.22 367.474 1241.99 358.903 1216.06 358.903C1201.99 358.903 1188.15 361.54 1174.52 366.815C1160.89 372.09 1148.14 379.343 1136.28 388.574C1124.85 397.805 1115.4 408.135 1107.92 419.564L1116.49 380.002V403.74C1116.49 432.752 1120.23 458.247 1127.7 480.226C1135.18 501.766 1146.17 518.47 1160.67 530.338C1175.62 542.207 1192.98 548.141 1212.76 548.141Z" fill="#FFDCF6"/>
<path d="M441.042 612.715C404.997 612.715 373.787 603.704 347.412 585.681C321.477 567.219 301.476 540.624 287.41 505.898C273.783 471.171 266.969 429.851 266.969 381.937C266.969 334.023 273.783 292.702 287.41 257.976C301.476 223.249 321.477 196.874 347.412 178.851C373.787 160.389 404.997 151.158 441.042 151.158C476.648 151.158 507.419 160.389 533.354 178.851C559.728 196.874 579.729 223.249 593.356 257.976C607.423 292.702 614.456 334.023 614.456 381.937C614.456 429.851 607.423 471.171 593.356 505.898C579.729 540.624 559.948 567.219 534.013 585.681C508.078 603.704 477.088 612.715 441.042 612.715ZM441.042 563.263C473.132 563.263 497.089 547.438 512.913 515.788C529.178 484.139 537.31 439.521 537.31 381.937C537.31 324.352 529.178 279.735 512.913 248.085C497.089 216.435 473.132 200.611 441.042 200.611C408.953 200.611 384.556 216.435 367.853 248.085C351.588 279.735 343.456 324.352 343.456 381.937C343.456 439.521 351.588 484.139 367.853 515.788C384.556 547.438 408.953 563.263 441.042 563.263Z" fill="#FFDCF6"/>
</svg>
