<svg width="425" height="448" viewBox="0 0 425 448" fill="none" xmlns="http://www.w3.org/2000/svg">
<rect x="0.21875" width="424.521" height="448" fill="#162A13"/>
<rect x="209.992" width="11.9303" height="448" fill="#DD4CC0"/>
<rect y="227.689" width="12.2614" height="424.482" transform="rotate(-90 0 227.689)" fill="#DD4CC0"/>
<path d="M221.922 229.415C223.413 229.579 226.744 230.564 232.482 234.186C240.558 239.283 243.413 242.445 248.911 249.609C250.913 252.217 253.058 255.931 255.57 260.4C258.081 264.869 260.722 270.101 263.899 277.211C270.97 293.036 274.945 303.063 275.943 304.874C279.441 311.221 285.606 318.744 291.594 324.265C297.332 329.556 302.62 332.462 305.031 333.614C315.241 338.878 328.803 345.18 329.724 345.349C329.819 345.19 329.159 344.536 328.478 343.863" stroke="#DD4CC0" stroke-width="12.453" stroke-linecap="round"/>
<path d="M223.498 224.086C218.835 224.086 210.824 224.427 204.485 227.002C201.109 228.373 195.564 238.301 191.603 244.563C189.857 247.323 187.522 251.265 184.83 257.28C178.527 271.369 178.311 276.399 174.932 286.166C172.52 293.137 168.131 306.46 164.449 316.122C158.543 331.617 154.487 337.885 153.014 339.685C149.078 344.494 146.32 347.865 134.189 357.053C130.851 359.744 128.764 361.47 126.334 363.104C125.281 363.716 124.592 363.887 123.883 364.063" stroke="#DD4CC0" stroke-width="12.453" stroke-linecap="round"/>
<path d="M137.017 71.5047C169.43 83.5422 199.056 177.251 209.818 222.6C177.533 194.387 113.791 155.626 93.734 127.526C74.561 100.665 96.5021 56.4579 137.017 71.5047Z" stroke="#DD4CC0" stroke-width="12.2521"/>
<path d="M336.376 108.084C335.142 141.107 263.502 193.536 224.91 217.108C241.117 179.268 251.623 112.695 271.454 85.9641C290.411 60.4117 337.917 66.8051 336.376 108.084Z" stroke="#DD4CC0" stroke-width="11.81"/>
</svg>
