<svg width="429" height="455" viewBox="0 0 429 455" fill="none" xmlns="http://www.w3.org/2000/svg">
<rect width="429" height="455" fill="#DD4CC0"/>
<ellipse cx="209.92" cy="261.471" rx="144.099" ry="144.544" fill="#162A13"/>
<rect x="170.781" y="93.7998" width="77.3867" height="30.2431" fill="#162A13"/>
<path d="M210.812 406.904V261.025H354.022C354.022 261.025 354.022 292.248 342.938 316.784C331.854 341.321 318.996 356.488 315.006 360.949C311.015 365.411 288.259 386.668 266.678 395.746C246.157 404.378 210.812 406.904 210.812 406.904Z" fill="#23731B"/>
<path d="M210.813 116.037L210.812 261.915H65.8262C65.8262 261.915 65.3801 231.133 76.5328 206.597C87.6855 182.061 100.623 167.349 105.976 161.991C111.329 156.633 132.888 136.272 154.602 127.194C175.25 118.562 210.813 116.037 210.813 116.037Z" fill="#23731B"/>
<path d="M191.526 113.163C187.764 100.34 190.145 68.914 207.938 68.0262C228.461 67.0022 228.289 96.4087 230 112.651" stroke="#162A13" stroke-width="11.0253"/>
</svg>
